<?xml version="1.0" encoding="UTF-8" standalone="no"?>
<!-- Created with Inkscape (http://www.inkscape.org/) -->

<svg
   width="402.21378mm"
   height="25.880682mm"
   viewBox="0 0 402.21378 25.880682"
   version="1.1"
   id="svg964"
   inkscape:version="1.1 (c68e22c387, 2021-05-23)"
   sodipodi:docname="legend.svg"
   inkscape:export-filename="C:\Users\amali\_projects\WIiT_INF_MAG\zti_platformer\assets\images\legend.png"
   inkscape:export-xdpi="200"
   inkscape:export-ydpi="200"
   xmlns:inkscape="http://www.inkscape.org/namespaces/inkscape"
   xmlns:sodipodi="http://sodipodi.sourceforge.net/DTD/sodipodi-0.dtd"
   xmlns="http://www.w3.org/2000/svg"
   xmlns:svg="http://www.w3.org/2000/svg">
  <sodipodi:namedview
     id="namedview966"
     pagecolor="#ffffff"
     bordercolor="#666666"
     borderopacity="1.0"
     inkscape:pageshadow="2"
     inkscape:pageopacity="0.0"
     inkscape:pagecheckerboard="0"
     inkscape:document-units="mm"
     showgrid="false"
     inkscape:zoom="0.5"
     inkscape:cx="925"
     inkscape:cy="77"
     inkscape:window-width="2456"
     inkscape:window-height="1411"
     inkscape:window-x="95"
     inkscape:window-y="1341"
     inkscape:window-maximized="1"
     inkscape:current-layer="layer1" />
  <defs
     id="defs961" />
  <g
     inkscape:label="Warstwa 1"
     inkscape:groupmode="layer"
     id="layer1"
     transform="translate(-39.241884,-135.55966)">
    <g
       id="g2990"
       transform="matrix(0.173127,0,0,0.14219657,5.8576242,132.0955)"
       style="opacity:0.68776371">
      <path
         style="fill:#000000;stroke-width:0.264583"
         d="m 274.32272,196.98888 v -6.61458 h -6.74688 -6.74687 v -7.01146 -7.01146 h -6.74688 -6.74687 v -6.74687 -6.74688 h -6.87463 -6.87462 l -0.0707,-6.68073 -0.0707,-6.68073 -6.68073,-0.0707 -6.68073,-0.0707 v -6.87463 -6.87462 h -6.87915 -6.87917 v -6.74688 -6.74687 h -6.74687 -6.74688 v -6.75142 -6.75142 l 6.68073,0.0707 6.68073,0.0707 0.0707,6.68073 0.0707,6.68073 h 6.87462 6.87462 v 6.70512 6.70512 l 4.80491,0.17405 c 2.64271,0.0957 5.66606,0.17404 6.71857,0.17404 1.50092,0 1.94829,0.0903 2.07425,0.41852 0.0883,0.23018 0.1606,3.18878 0.1606,6.57466 v 6.15614 l 6.54409,0.18991 c 3.59924,0.10445 6.60445,0.25028 6.67824,0.32407 0.0738,0.0738 0.17835,3.10192 0.23237,6.72918 l 0.0982,6.59502 h 6.71729 6.7173 v 6.74688 6.74687 h 6.74687 6.74688 v -20.37291 -20.37292 h 27.07648 27.07648 l 0.17531,-16.7349 c 0.0964,-9.20419 0.25256,-18.29579 0.34699,-20.20355 l 0.17168,-3.468651 -27.11573,-0.12708 c -14.91365,-0.0699 -27.25421,-0.21267 -27.42347,-0.31727 -0.22959,-0.1419 -0.30774,-5.32636 -0.30774,-20.415206 v -20.22501 h -6.74688 -6.74687 v -6.746875 -6.746875 h 6.74687 6.74688 v -6.746875 -6.746875 h 6.74687 6.74688 v 27.119792 27.119792 h 27.25208 27.25208 v 33.998953 33.99896 h -27.25208 -27.25208 v 27.11979 27.1198 h -6.74688 -6.74687 z m -67.99791,-95.12217 v -6.751341 l 6.81302,0.0706 6.81301,0.0706 0.0707,6.680731 0.0707,6.68073 h -6.8837 -6.88371 z m 13.75832,-13.753871 v -6.746872 h 6.74688 6.74687 v -6.746875 -6.746875 h 6.74688 6.74687 v 6.746875 6.746875 h -6.74687 -6.74688 v 6.746872 6.74688 h -6.74687 -6.74688 z m 27.25209,-26.987497 v -6.746875 h 6.74687 6.74688 v 6.746875 6.746875 h -6.74688 -6.74687 z"
         id="path2397" />
      <path
         id="rect2725"
         style="opacity:0.317862;fill:#333333;stroke-width:3.77953;stroke-linecap:round;stroke-linejoin:round"
         d="m 985.81055,204.52539 v 52 h -51 v 51 h -52 v 52.5 h -51.5 v 51 h -52 v 50.5 h 52 V 515 h 51.5 v 49 h 52 v 51.52539 h 51 v 51 h 50.99995 v -154 h 207.295 v -152.7207 h -207.295 v -155.2793 z"
         transform="scale(0.26458333)" />
    </g>
    <text
       xml:space="preserve"
       style="font-size:34.3974px;line-height:1.25;font-family:sans-serif;stroke-width:0.716611;fill:#212178;opacity:0.68776371"
       x="106.49595"
       y="158.90521"
       id="text3478"><tspan
         sodipodi:role="line"
         id="tspan3476"
         style="font-style:normal;font-variant:normal;font-weight:normal;font-stretch:normal;font-size:34.3974px;font-family:pixellife;-inkscape-font-specification:pixellife;stroke-width:0.716611;fill:#212178"
         x="106.49595"
         y="158.90521">move</tspan></text>
    <text
       xml:space="preserve"
       style="font-size:34.3974px;line-height:1.25;font-family:sans-serif;stroke-width:0.716611;fill:#212178;opacity:0.68776371"
       x="209.61751"
       y="158.87968"
       id="text8092"><tspan
         sodipodi:role="line"
         id="tspan8090"
         style="font-style:normal;font-variant:normal;font-weight:normal;font-stretch:normal;font-size:34.3974px;font-family:pixellife;-inkscape-font-specification:pixellife;stroke-width:0.716611;fill:#212178"
         x="209.61751"
         y="158.87968">jump/double jump</tspan></text>
    <g
       id="g10054"
       transform="matrix(-0.173127,0,0,0.14219657,133.40656,132.0955)"
       style="opacity:0.68776371">
      <path
         style="fill:#000000;stroke-width:0.264583"
         d="m 274.32272,196.98888 v -6.61458 h -6.74688 -6.74687 v -7.01146 -7.01146 h -6.74688 -6.74687 v -6.74687 -6.74688 h -6.87463 -6.87462 l -0.0707,-6.68073 -0.0707,-6.68073 -6.68073,-0.0707 -6.68073,-0.0707 v -6.87463 -6.87462 h -6.87915 -6.87917 v -6.74688 -6.74687 h -6.74687 -6.74688 v -6.75142 -6.75142 l 6.68073,0.0707 6.68073,0.0707 0.0707,6.68073 0.0707,6.68073 h 6.87462 6.87462 v 6.70512 6.70512 l 4.80491,0.17405 c 2.64271,0.0957 5.66606,0.17404 6.71857,0.17404 1.50092,0 1.94829,0.0903 2.07425,0.41852 0.0883,0.23018 0.1606,3.18878 0.1606,6.57466 v 6.15614 l 6.54409,0.18991 c 3.59924,0.10445 6.60445,0.25028 6.67824,0.32407 0.0738,0.0738 0.17835,3.10192 0.23237,6.72918 l 0.0982,6.59502 h 6.71729 6.7173 v 6.74688 6.74687 h 6.74687 6.74688 v -20.37291 -20.37292 h 27.07648 27.07648 l 0.17531,-16.7349 c 0.0964,-9.20419 0.25256,-18.29579 0.34699,-20.20355 l 0.17168,-3.468651 -27.11573,-0.12708 c -14.91365,-0.0699 -27.25421,-0.21267 -27.42347,-0.31727 -0.22959,-0.1419 -0.30774,-5.32636 -0.30774,-20.415206 v -20.22501 h -6.74688 -6.74687 v -6.746875 -6.746875 h 6.74687 6.74688 v -6.746875 -6.746875 h 6.74687 6.74688 v 27.119792 27.119792 h 27.25208 27.25208 v 33.998953 33.99896 h -27.25208 -27.25208 v 27.11979 27.1198 h -6.74688 -6.74687 z m -67.99791,-95.12217 v -6.751341 l 6.81302,0.0706 6.81301,0.0706 0.0707,6.680731 0.0707,6.68073 h -6.8837 -6.88371 z m 13.75832,-13.753871 v -6.746872 h 6.74688 6.74687 v -6.746875 -6.746875 h 6.74688 6.74687 v 6.746875 6.746875 h -6.74687 -6.74688 v 6.746872 6.74688 h -6.74687 -6.74688 z m 27.25209,-26.987497 v -6.746875 h 6.74687 6.74688 v 6.746875 6.746875 h -6.74688 -6.74687 z"
         id="path10050" />
      <path
         id="path10052"
         style="opacity:0.317862;fill:#333333;stroke-width:3.77953;stroke-linecap:round;stroke-linejoin:round"
         d="m 985.81055,204.52539 v 52 h -51 v 51 h -52 v 52.5 h -51.5 v 51 h -52 v 50.5 h 52 V 515 h 51.5 v 49 h 52 v 51.52539 h 51 v 51 h 50.99995 v -154 h 207.295 v -152.7207 h -207.295 v -155.2793 z"
         transform="scale(0.26458333)" />
    </g>
    <g
       id="g10060"
       transform="matrix(0,0.173127,0.14219657,0,172.91945,102.1754)"
       style="opacity:0.68776371">
      <path
         style="fill:#000000;stroke-width:0.264583"
         d="m 274.32272,196.98888 v -6.61458 h -6.74688 -6.74687 v -7.01146 -7.01146 h -6.74688 -6.74687 v -6.74687 -6.74688 h -6.87463 -6.87462 l -0.0707,-6.68073 -0.0707,-6.68073 -6.68073,-0.0707 -6.68073,-0.0707 v -6.87463 -6.87462 h -6.87915 -6.87917 v -6.74688 -6.74687 h -6.74687 -6.74688 v -6.75142 -6.75142 l 6.68073,0.0707 6.68073,0.0707 0.0707,6.68073 0.0707,6.68073 h 6.87462 6.87462 v 6.70512 6.70512 l 4.80491,0.17405 c 2.64271,0.0957 5.66606,0.17404 6.71857,0.17404 1.50092,0 1.94829,0.0903 2.07425,0.41852 0.0883,0.23018 0.1606,3.18878 0.1606,6.57466 v 6.15614 l 6.54409,0.18991 c 3.59924,0.10445 6.60445,0.25028 6.67824,0.32407 0.0738,0.0738 0.17835,3.10192 0.23237,6.72918 l 0.0982,6.59502 h 6.71729 6.7173 v 6.74688 6.74687 h 6.74687 6.74688 v -20.37291 -20.37292 h 27.07648 27.07648 l 0.17531,-16.7349 c 0.0964,-9.20419 0.25256,-18.29579 0.34699,-20.20355 l 0.17168,-3.468651 -27.11573,-0.12708 c -14.91365,-0.0699 -27.25421,-0.21267 -27.42347,-0.31727 -0.22959,-0.1419 -0.30774,-5.32636 -0.30774,-20.415206 v -20.22501 h -6.74688 -6.74687 v -6.746875 -6.746875 h 6.74687 6.74688 v -6.746875 -6.746875 h 6.74687 6.74688 v 27.119792 27.119792 h 27.25208 27.25208 v 33.998953 33.99896 h -27.25208 -27.25208 v 27.11979 27.1198 h -6.74688 -6.74687 z m -67.99791,-95.12217 v -6.751341 l 6.81302,0.0706 6.81301,0.0706 0.0707,6.680731 0.0707,6.68073 h -6.8837 -6.88371 z m 13.75832,-13.753871 v -6.746872 h 6.74688 6.74687 v -6.746875 -6.746875 h 6.74688 6.74687 v 6.746875 6.746875 h -6.74687 -6.74688 v 6.746872 6.74688 h -6.74687 -6.74688 z m 27.25209,-26.987497 v -6.746875 h 6.74687 6.74688 v 6.746875 6.746875 h -6.74688 -6.74687 z"
         id="path10056" />
      <path
         id="path10058"
         style="opacity:0.317862;fill:#333333;stroke-width:3.77953;stroke-linecap:round;stroke-linejoin:round"
         d="m 985.81055,204.52539 v 52 h -51 v 51 h -52 v 52.5 h -51.5 v 51 h -52 v 50.5 h 52 V 515 h 51.5 v 49 h 52 v 51.52539 h 51 v 51 h 50.99995 v -154 h 207.295 v -152.7207 h -207.295 v -155.2793 z"
         transform="scale(0.26458333)" />
    </g>
  </g>
</svg>
